Coordinates
version=1
nRows=49
nColumns=12
inDegrees=yes

Units are S.I. units (second, meters, Newtons, ...)
Angles are in degrees

endheader
time	SC_y	SC_z	SC_x	AC_y	AC_z	AC_x	GH_y	GH_z	GH_yy	EL_x	PS_y
       0.0               -47.6         -2.167          41.26          33.18          6.954         -19.72         -68.41          83.58         -17.98          80.05           90.5
   0.04939               -47.6         -2.165          41.26          33.18          6.952         -19.72         -68.41          83.58         -17.96          80.05          90.51
   0.09879               -47.6         -2.162          41.26          33.18          6.951         -19.72         -68.42          83.57         -17.94          80.05          90.51
    0.1482               -47.6          -2.16          41.26          33.18          6.949         -19.72         -68.43          83.57         -17.92          80.04          90.52
    0.1976               -47.6         -2.157          41.26          33.18          6.947         -19.72         -68.43          83.56          -17.9          80.04          90.52
     0.247              -47.61         -2.154          41.26          33.18          6.945         -19.72         -68.44          83.56         -17.88          80.04          90.53
    0.2964              -47.61          -2.15          41.26          33.18          6.943         -19.72         -68.45          83.55         -17.85          80.03          90.53
    0.3458              -47.61         -2.147          41.26          33.19           6.94         -19.72         -68.46          83.54         -17.83          80.03          90.54
    0.3951              -47.61         -2.143          41.26          33.19          6.938         -19.72         -68.47          83.53          -17.8          80.02          90.55
    0.4445              -47.62         -2.139          41.26          33.19          6.935         -19.72         -68.48          83.53         -17.77          80.02          90.56
    0.4939              -47.62         -2.134          41.26          33.19          6.933         -19.72         -68.49          83.52         -17.74          80.01          90.56
    0.5433              -47.62          -2.13          41.26          33.19          6.929         -19.72          -68.5          83.51          -17.7          80.01          90.57
    0.5927              -47.62         -2.125          41.26          33.19          6.926         -19.72         -68.52           83.5         -17.66           80.0          90.58
    0.6421              -47.63         -2.119          41.26           33.2          6.923         -19.72         -68.53          83.48         -17.62          79.99          90.59
    0.6915              -47.63         -2.113          41.26           33.2          6.919         -19.72         -68.54          83.47         -17.58          79.99          90.61
    0.7409              -47.64         -2.107          41.26           33.2          6.915         -19.72         -68.56          83.46         -17.53          79.98          90.62
    0.7903              -47.64           -2.1          41.26           33.2           6.91         -19.72         -68.58          83.44         -17.48          79.97          90.63
    0.8397              -47.64         -2.092          41.26          33.21          6.905         -19.72          -68.6          83.43         -17.43          79.96          90.65
    0.8891              -47.65         -2.084          41.25          33.21            6.9         -19.72         -68.62          83.41         -17.37          79.95          90.66
    0.9385              -47.66         -2.075          41.25          33.21          6.894         -19.72         -68.64          83.39          -17.3          79.94          90.68
    0.9879              -47.66         -2.064          41.25          33.22          6.887         -19.72         -68.67          83.37         -17.22          79.92           90.7
     1.037              -47.67         -2.053          41.25          33.22           6.88         -19.72          -68.7          83.35         -17.14          79.91          90.72
     1.087              -47.68         -2.041          41.25          33.23          6.873         -19.72         -68.73          83.32         -17.05           79.9          90.74
     1.136              -47.69         -2.028          41.25          33.23          6.864         -19.71         -68.76          83.29         -16.96          79.88          90.77
     1.185               -47.7         -2.013          41.25          33.24          6.854         -19.71          -68.8          83.26         -16.85          79.86           90.8
     1.235              -47.71         -1.996          41.25          33.24          6.843         -19.71         -68.84          83.23         -16.72          79.84          90.83
     1.284              -47.72         -1.977          41.24          33.25          6.831         -19.71         -68.89          83.19         -16.59          79.81          90.87
     1.334              -47.73         -1.956          41.24          33.26          6.818         -19.71         -68.94          83.14         -16.43          79.79          90.91
     1.383              -47.75         -1.932          41.24          33.27          6.802         -19.71          -69.0          83.09         -16.26          79.76          90.96
     1.432              -47.76         -1.905          41.24          33.28          6.785         -19.71         -69.07          83.04         -16.06          79.72          91.01
     1.482              -47.78         -1.874          41.23          33.29          6.765         -19.71         -69.15          82.97         -15.83          79.69          91.07
     1.531              -47.81         -1.839          41.23           33.3          6.742          -19.7         -69.24           82.9         -15.57          79.64          91.14
     1.581              -47.83         -1.798          41.22          33.32          6.716          -19.7         -69.35          82.81         -15.27          79.59          91.22
      1.63              -47.86          -1.75          41.22          33.34          6.685          -19.7         -69.47          82.71         -14.92          79.53          91.31
     1.679               -47.9         -1.694          41.21          33.36          6.649          -19.7         -69.61           82.6         -14.52          79.46          91.42
     1.729              -47.94         -1.629          41.21          33.39          6.607         -19.69         -69.78          82.46         -14.03          79.38          91.54
     1.778              -47.99         -1.551           41.2          33.42          6.556         -19.69         -69.98           82.3         -13.46          79.28           91.7
     1.828              -48.05         -1.457          41.19          33.45          6.496         -19.68         -70.21           82.1         -12.78          79.16          91.88
     1.877              -48.12         -1.344          41.18           33.5          6.423         -19.68          -70.5          81.87         -11.95          79.02           92.1
     1.926              -48.21         -1.206          41.16          33.55          6.334         -19.67         -70.85          81.58         -10.94          78.84          92.36
     1.976              -48.32         -1.035          41.14          33.62          6.224         -19.66         -71.29          81.22         -9.687          78.63          92.69
     2.025              -48.45        -0.8221          41.12           33.7          6.087         -19.65         -71.83          80.78         -8.129          78.36          93.11
     2.075              -48.62        -0.5541          41.09           33.8          5.914         -19.63         -72.51          80.22         -6.167          78.03          93.62
     2.124              -48.84        -0.2133          41.05          33.94          5.695         -19.61         -73.38          79.51         -3.672           77.6          94.28
     2.173              -49.11         0.2229          41.01          34.11          5.413         -19.59         -74.49           78.6         -0.478          77.05          95.13
     2.223              -49.47         0.7827          40.95          34.33          5.053         -19.56         -75.91          77.43           3.62          76.35          96.21
     2.272              -49.92          1.498          40.87           34.6          4.592         -19.52         -77.73          75.94          8.855          75.45           97.6
     2.322              -50.49          2.397          40.77          34.95          4.013         -19.47         -80.02          74.07          15.44          74.32          99.34
     2.371              -51.19          3.492          40.66          35.38          3.307         -19.41         -82.81          71.78          23.46          72.94          101.5
